<svg xmlns="http://www.w3.org/2000/svg" xmlns:xlink="http://www.w3.org/1999/xlink" width="17.981878662109352" height="16.776440429687455" viewBox="0 0 17.981878662109352 16.776440429687455" fill="none"><g opacity="0.9"><path d="M7.49277 4.98785C7.49277 4.98785 9.4111 2.38958 10.9256 1.3505C12.44 0.311427 14.0555 -0.31229 16.5796 1.66227C17.3066 2.50414 19.0028 4.46823 16.0748 8.10558L15.8729 8.31343L11.9352 4.46823C11.8444 4.3747 11.6323 4.15646 11.1275 4.3643C10.6227 4.57215 10.3198 5.6114 9.20918 5.81924C8.09856 6.02709 7.49277 5.6108 7.49277 4.98785Z" stroke="rgba(113, 68, 219, 0)" stroke-width="0.5"      fill="#792CE6" ></path><path d="M7.69164 1.57526C7.69164 1.16205 3.95594 -1.43854 1.02796 2.6145C0.573619 3.61217 -0.486512 5.94007 2.74436 8.53818C2.86552 8.69407 3.14822 9.0578 2.3405 9.57742C1.53278 10.097 2.03761 10.718 2.3405 10.9284C2.52224 11.022 2.94629 11.2402 3.35015 10.7206L3.85498 10.201C4.00642 10.1386 4.3598 9.99312 4.3598 10.7206L3.65305 11.552C3.59247 11.9261 3.45112 12.7991 4.66269 12.4873L5.36945 11.7598C5.61176 11.6975 6.17717 11.552 5.97524 12.3834L5.26848 13.2148C5.2079 13.6824 5.06655 14.7736 6.3791 14.1501L6.98489 13.5265C7.2272 13.4642 7.7926 13.3187 7.59067 14.1501L6.78296 14.9815C6.75267 15.3556 6.68199 16.2286 7.89357 15.9168L8.80225 14.9815L9.71094 15.9168C9.98354 15.948 10.6196 16.0207 10.7206 14.9815L10.0138 14.1501C9.98354 13.963 9.91286 13.5265 10.5187 13.5265L11.4273 14.3579C11.7605 14.3268 12.538 14.254 12.2351 13.2148L11.6293 12.4873C11.599 12.2691 11.5283 11.7598 12.2351 11.7598L13.0428 12.4873C13.3154 12.5497 14.4569 12.9069 13.9515 11.4481L13.2447 10.7206C13.2144 10.5023 13.1437 9.99312 13.7495 10.097L14.6582 10.9284C14.9611 10.9284 15.6679 10.9284 15.5669 9.8892L11.6293 5.73223C11.5081 5.57634 11.2254 5.21261 10.8215 5.73223C10.4177 6.25185 7.18682 8.22641 5.26848 4.79691C5.26848 4.79691 7.69164 2.30584 7.69164 2.09488L7.69164 1.57526Z" stroke="rgba(113, 68, 219, 0)" stroke-width="0.5"      fill="url(#linear_fill_15_21)" ></path><g opacity="0.4"><g filter="url(#filter_44_27)"><foreignObject x="-5" y="-5" width="26.08494262695308" height="26.776440429687455"><div xmlns="http://www.w3.org/1999/xhtml" style="backdrop-filter:blur(0.5px);clip-path:url(#bgblur_16.08494262695308_16.776440429687455_1_clip_path);height:100%;width:100%"></div></foreignObject><path d="M7.69164 1.57526C7.69164 1.16205 3.95594 -1.43854 1.02796 2.6145C0.573619 3.61217 -0.486512 5.94007 2.74436 8.53818C2.86552 8.69407 3.14822 9.0578 2.3405 9.57742C1.53278 10.097 2.03761 10.718 2.3405 10.9284C2.52224 11.022 2.94629 11.2402 3.35015 10.7206L3.85498 10.201C4.00642 10.1386 4.3598 9.99312 4.3598 10.7206L3.65305 11.552C3.59247 11.9261 3.45112 12.7991 4.66269 12.4873L5.36945 11.7598C5.61176 11.6975 6.17717 11.552 5.97524 12.3834L5.26848 13.2148C5.2079 13.6824 5.06655 14.7736 6.3791 14.1501L6.98489 13.5265C7.2272 13.4642 7.7926 13.3187 7.59067 14.1501L6.78296 14.9815C6.75267 15.3556 6.68199 16.2286 7.89357 15.9168L8.80225 14.9815L9.71094 15.9168C9.98354 15.948 10.6196 16.0207 10.7206 14.9815L10.0138 14.1501C9.98354 13.963 9.91286 13.5265 10.5187 13.5265L11.4273 14.3579C11.7605 14.3268 12.538 14.254 12.2351 13.2148L11.6293 12.4873C11.599 12.2691 11.5283 11.7598 12.2351 11.7598L13.0428 12.4873C13.3154 12.5497 14.4569 12.9069 13.9515 11.4481L13.2447 10.7206C13.2144 10.5023 13.1437 9.99312 13.7495 10.097L14.6582 10.9284C14.9611 10.9284 15.6679 10.9284 15.5669 9.8892L11.6293 5.73223C11.5081 5.57634 11.2254 5.21261 10.8215 5.73223C10.4177 6.25185 7.18682 8.22641 5.26848 4.79691C5.26848 4.79691 7.69164 2.30584 7.69164 2.09488L7.69164 1.57526Z" stroke="rgba(113, 68, 219, 0)" stroke-width="0.1"      fill="#843EE6" ></path></g></g><defs><clipPath id="bgblur_16.08494262695308_16.776440429687455_1_clip_path" transform="translate(5 5)"><path d="M7.69164 1.57526C7.69164 1.16205 3.95594 -1.43854 1.02796 2.6145C0.573619 3.61217 -0.486512 5.94007 2.74436 8.53818C2.86552 8.69407 3.14822 9.0578 2.3405 9.57742C1.53278 10.097 2.03761 10.718 2.3405 10.9284C2.52224 11.022 2.94629 11.2402 3.35015 10.7206L3.85498 10.201C4.00642 10.1386 4.3598 9.99312 4.3598 10.7206L3.65305 11.552C3.59247 11.9261 3.45112 12.7991 4.66269 12.4873L5.36945 11.7598C5.61176 11.6975 6.17717 11.552 5.97524 12.3834L5.26848 13.2148C5.2079 13.6824 5.06655 14.7736 6.3791 14.1501L6.98489 13.5265C7.2272 13.4642 7.7926 13.3187 7.59067 14.1501L6.78296 14.9815C6.75267 15.3556 6.68199 16.2286 7.89357 15.9168L8.80225 14.9815L9.71094 15.9168C9.98354 15.948 10.6196 16.0207 10.7206 14.9815L10.0138 14.1501C9.98354 13.963 9.91286 13.5265 10.5187 13.5265L11.4273 14.3579C11.7605 14.3268 12.538 14.254 12.2351 13.2148L11.6293 12.4873C11.599 12.2691 11.5283 11.7598 12.2351 11.7598L13.0428 12.4873C13.3154 12.5497 14.4569 12.9069 13.9515 11.4481L13.2447 10.7206C13.2144 10.5023 13.1437 9.99312 13.7495 10.097L14.6582 10.9284C14.9611 10.9284 15.6679 10.9284 15.5669 9.8892L11.6293 5.73223C11.5081 5.57634 11.2254 5.21261 10.8215 5.73223C10.4177 6.25185 7.18682 8.22641 5.26848 4.79691C5.26848 4.79691 7.69164 2.30584 7.69164 2.09488L7.69164 1.57526Z"/></clipPath></defs></g><defs><linearGradient id="linear_fill_15_21" x1="0.49277343749997726" y1="8.178240966796864" x2="15.576666259765602" y2="8.178240966796864" gradientUnits="userSpaceOnUse"><stop offset="0" stop-color="#7620ED" stop-opacity="0.83" /><stop offset="0.4411" stop-color="#8753CF" stop-opacity="0.31" /><stop offset="1" stop-color="#590FBF"  /><stop offset="1.02" stop-color="#A163F7" stop-opacity="0" /></linearGradient><filter id="filter_44_27" x="0" y="0" width="16.08494262695308" height="16.776440429687455" filterUnits="userSpaceOnUse" color-interpolation-filters="sRGB"><feFlood flood-opacity="0" result="feFloodId_44_27"/><feColorMatrix in="SourceAlpha" type="matrix" values="0 0 0 0 0 0 0 0 0 0 0 0 0 0 0 0 0 0 127 0" result="hardAlpha_44_27"/><feOffset dx="0" dy="0.2"/><feGaussianBlur stdDeviation="0.2"/><feComposite in2="hardAlpha_44_27" operator="out"/><feColorMatrix type="matrix" values="0 0 0 0 0 0 0 0 0 0 0 0 0 0 0 0 0 0 0.25 0"/><feBlend mode="normal" in2="feFloodId_44_27" result="dropShadow_1_44_27"/><feBlend mode="normal" in="SourceGraphic" in2="dropShadow_1_44_27" result="shape_44_27"/></filter></defs></svg>