<svg xmlns="http://www.w3.org/2000/svg" xmlns:xlink="http://www.w3.org/1999/xlink" width="14.748327636718727" height="17.898876953124955" viewBox="0 0 14.748327636718727 17.898876953124955" fill="none"><path d="M7.42174 9.7443C8.35775 8.98898 8.96317 7.7685 8.96317 6.39813C8.96317 4.10718 7.26614 2.24999 5.17277 2.24999C3.07939 2.24999 1.38237 4.10718 1.38237 6.39813C1.38237 7.76854 1.98773 8.98898 2.9238 9.7443C1.26028 10.6496 -0.500199 12.6203 0.131535 14.6944C0.763268 16.7685 9.60941 16.7685 10.2266 14.6944C10.8439 12.6203 9.08533 10.6495 7.42174 9.7443Z" fill-rule="evenodd"  fill="#852EFF" ></path><g opacity="0.4"><g filter="url(#filter_44_22)"><foreignObject x="-4.574499511718727" y="-5" width="24.322827148437455" height="27.898876953124955"><div xmlns="http://www.w3.org/1999/xhtml" style="backdrop-filter:blur(2px);clip-path:url(#bgblur_14.322827148437455_17.898876953124955_4_clip_path);height:100%;width:100%"></div></foreignObject><path d="M12.4052 5.28999C12.4052 6.95401 11.6365 8.43281 10.4452 9.34999C12.5625 10.4492 14.8007 12.8415 14.0152 15.36C13.2296 17.8785 1.96921 17.8785 1.16519 15.36C0.361166 12.8415 2.598 10.4492 4.71519 9.34999C3.52384 8.43281 2.75519 6.95406 2.75519 5.28999C2.75519 2.50812 4.9209 0.249988 7.58519 0.249988C10.2495 0.249988 12.4052 2.50812 12.4052 5.28999ZM6.89169 6.34999C5.99696 6.00878 5.90581 6.64709 6.88169 7.02999C7.85756 7.41289 8.96151 7.20459 9.55169 7.02999C10.1419 6.85538 10.605 6.07083 9.56169 6.34999C8.51838 6.62914 7.78642 6.69119 6.89169 6.34999Z" stroke="rgba(255, 255, 255, 1)" stroke-width="0.1"    fill-rule="evenodd"  fill="#BB94FF" ></path></g></g><defs><clipPath id="bgblur_14.322827148437455_17.898876953124955_4_clip_path" transform="translate(4.574499511718727 5)"><path d="M12.4052 5.28999C12.4052 6.95401 11.6365 8.43281 10.4452 9.34999C12.5625 10.4492 14.8007 12.8415 14.0152 15.36C13.2296 17.8785 1.96921 17.8785 1.16519 15.36C0.361166 12.8415 2.598 10.4492 4.71519 9.34999C3.52384 8.43281 2.75519 6.95406 2.75519 5.28999C2.75519 2.50812 4.9209 0.249988 7.58519 0.249988C10.2495 0.249988 12.4052 2.50812 12.4052 5.28999ZM6.89169 6.34999C5.99696 6.00878 5.90581 6.64709 6.88169 7.02999C7.85756 7.41289 8.96151 7.20459 9.55169 7.02999C10.1419 6.85538 10.605 6.07083 9.56169 6.34999C8.51838 6.62914 7.78642 6.69119 6.89169 6.34999Z"/></clipPath></defs><defs><filter id="filter_44_22" x="0.42550048828127274" y="0" width="14.322827148437455" height="17.898876953124955" filterUnits="userSpaceOnUse" color-interpolation-filters="sRGB"><feFlood flood-opacity="0" result="feFloodId_44_22"/><feColorMatrix in="SourceAlpha" type="matrix" values="0 0 0 0 0 0 0 0 0 0 0 0 0 0 0 0 0 0 127 0" result="hardAlpha_44_22"/><feOffset dx="0" dy="0.2"/><feGaussianBlur stdDeviation="0.2"/><feComposite in2="hardAlpha_44_22" operator="out"/><feColorMatrix type="matrix" values="0 0 0 0 0 0 0 0 0 0 0 0 0 0 0 0 0 0 0.25 0"/><feBlend mode="normal" in2="feFloodId_44_22" result="dropShadow_1_44_22"/><feBlend mode="normal" in="SourceGraphic" in2="dropShadow_1_44_22" result="shape_44_22"/></filter></defs></svg>