<svg xmlns="http://www.w3.org/2000/svg" xmlns:xlink="http://www.w3.org/1999/xlink" width="17" height="16.004791259765625" viewBox="0 0 17 16.004791259765625" fill="none"><path d="M10.147 5.92C10.373 5.92 10.5859 6.05721 10.687 6.28L11.717 8.55L15.327 8.55C15.8646 7.32892 16.1307 5.987 16.117 4.63C16.0934 2.07649 14.2389 0 11.977 0C10.1825 0 8.98833 1.21769 8.35699 2.1C7.7272 1.21647 6.54134 0 4.74699 0C2.48507 0 0.620425 2.07649 0.596985 4.63C0.596985 5.51178 0.696462 6.39556 0.926985 7.24L4.40699 7.24L6.03699 3.65C6.14643 3.40867 6.37311 3.26673 6.61699 3.29C6.86102 3.31318 7.06682 3.50161 7.13699 3.76L8.49699 8.75L9.61699 6.28C9.71805 6.05721 9.92081 5.92 10.147 5.92Z"   fill="url(#linear_fill_6E3B64ED-1297-4FA8-83E7-3DCB4F541F40)" ></path><path d="M14.3311 11.1355C14.5833 10.7973 14.821 10.4401 15.0411 10.0755L11.7411 10.0755C11.515 10.0755 11.3121 9.93827 11.2111 9.71555L10.5511 8.25555L9.29105 11.0255C9.18997 11.2483 8.9772 11.3955 8.75105 11.3955C8.73436 11.3955 8.7188 11.3955 8.70105 11.3955C8.45662 11.3732 8.25166 11.1845 8.18105 10.9255L6.82105 5.93555L5.70105 8.39555C5.60036 8.61707 5.39587 8.76555 5.17105 8.76555L1.79105 8.76555C2.13934 9.56829 2.60224 10.358 3.18105 11.1355C3.88148 12.0762 5.14858 13.5822 8.08105 15.7756C8.48591 16.0812 9.02619 16.0812 9.43105 15.7756C12.3634 13.5822 13.6306 12.0762 14.3311 11.1355Z"   fill="url(#linear_fill_A8619C03-6EE9-4310-9821-ECE4FA7D720C)" ></path><path d="M16.403 8.57352L15.6064 8.57352C15.4079 9.02922 15.1803 9.46885 14.9254 9.8891L16.403 9.8891C16.7327 9.8891 17 9.59459 17 9.23131C17 8.86802 16.7327 8.57352 16.403 8.57352L16.403 8.57352Z"   fill="url(#linear_fill_17D10BA2-C8DA-4784-A01C-0046D41A63E3)" ></path><path d="M0.597015 7.25458C0.267289 7.25458 0 7.54908 0 7.91237C0 8.27565 0.267289 8.57016 0.597015 8.57016L1.39366 8.57016C1.20903 8.14527 1.05411 7.70545 0.930224 7.25458L0.597015 7.25458Z"   fill="url(#linear_fill_4EF2E0A4-289F-4E23-8347-01940A8A1C46)" ></path><defs><linearGradient id="linear_fill_6E3B64ED-1297-4FA8-83E7-3DCB4F541F40" x1="-3.4127197265625" y1="0" x2="18.287811279296875" y2="8.746978759765625" gradientUnits="userSpaceOnUse"><stop offset="0" stop-color="#FFFFFF"  /><stop offset="0.8803448934457947" stop-color="#8B3FFC"  /><stop offset="1" stop-color="#6B2FC4"  /></linearGradient><linearGradient id="linear_fill_A8619C03-6EE9-4310-9821-ECE4FA7D720C" x1="1.791046142578125" y1="10.9677734375" x2="15.039154052734375" y2="10.9677734375" gradientUnits="userSpaceOnUse"><stop offset="0" stop-color="#FFFFFF"  /><stop offset="1" stop-color="#7524F0"  /></linearGradient><linearGradient id="linear_fill_17D10BA2-C8DA-4784-A01C-0046D41A63E3" x1="14.925384521484375" y1="9.231292724609375" x2="17" y2="9.231292724609375" gradientUnits="userSpaceOnUse"><stop offset="0" stop-color="#FFFFFF"  /><stop offset="1" stop-color="#6B2FC4"  /></linearGradient><linearGradient id="linear_fill_4EF2E0A4-289F-4E23-8347-01940A8A1C46" x1="0" y1="7.912353515625" x2="1.393646240234375" y2="7.912353515625" gradientUnits="userSpaceOnUse"><stop offset="0" stop-color="#FFFFFF"  /><stop offset="1" stop-color="#6B2FC4"  /></linearGradient></defs></svg>