<svg xmlns="http://www.w3.org/2000/svg" xmlns:xlink="http://www.w3.org/1999/xlink" width="16" height="14.818603515625" viewBox="0 0 16 14.818603515625" fill="none"><g filter="url(#filter_59_31)"><rect x="2" y="4.818603515625" width="12" height="8"   fill="#7620ED" ></rect></g><g filter="url(#filter_CD5C94D6-7557-4DBA-94E2-6CE39859EC02)"><path     fill="#802DFC"  d="M8.96731 3.21L8.96731 2.44C8.96731 2.19638 8.76895 2 8.52732 2L6.47731 2C6.23568 2 6.03731 2.19626 6.03731 2.44L6.03731 3.21L8.96731 3.21"></path></g><path     fill="url(#linear_fill_4E939758-8081-48C6-8168-268DFBE50CD8_0)"  d="M6.91 0.818604L9.09 0.818604C10.0372 0.818604 10.81 1.5426 10.81 2.4386L10.81 3.2086L13.5 3.2086C14.8776 3.2086 16 4.2766 16 5.5786L16 11.9586L16 12.4586C16 13.762 14.8776 14.8186 13.5 14.8186L2.5 14.8186C1.1208 14.8186 0 13.762 0 12.4586L0 5.5786C0 4.2766 1.1208 3.2086 2.5 3.2086L5.19 3.2086L5.19 2.4386C5.19 1.5426 5.9628 0.818604 6.91 0.818604Z"></path><g opacity="0.02"><g filter="url(#filter_59_32)"><foreignObject x="-4.300000000000011" y="-1.2813964843750227" width="24.600000000000023" height="20.600000000000023"><div xmlns="http://www.w3.org/1999/xhtml" style="backdrop-filter:blur(2px);clip-path:url(#bgblur_14.600000000000023_10.600000000000023_4_clip_path);height:100%;width:100%"></div></foreignObject><path     fill="url(#linear_fill_59_32_0)" fill-opacity="1" d="M3 3.8186L13 3.8186C14.1046 3.8186 15 4.71403 15 5.8186L15 11.8186C15 12.9232 14.1046 13.8186 13 13.8186L3 13.8186C1.89543 13.8186 1 12.9232 1 11.8186L1 5.8186C1 4.71403 1.89543 3.8186 3 3.8186Z"></path></g></g><defs><clipPath id="bgblur_14.600000000000023_10.600000000000023_4_clip_path" transform="translate(4.300000000000011 1.2813964843750227)"><path d="M3 3.8186L13 3.8186C14.1046 3.8186 15 4.71403 15 5.8186L15 11.8186C15 12.9232 14.1046 13.8186 13 13.8186L3 13.8186C1.89543 13.8186 1 12.9232 1 11.8186L1 5.8186C1 4.71403 1.89543 3.8186 3 3.8186Z"/></clipPath></defs><path     fill="#FFFFFF"  d="M8 5.8186C8.3684 5.8186 8.66 6.1202 8.66 6.4886L8.66 8.1586L10.34 8.1586C10.7084 8.1586 11 8.4502 11 8.8186C11 9.187 10.7084 9.4886 10.34 9.4886L8.66 9.4886L8.66 11.1586C8.66 11.527 8.3684 11.8186 8 11.8186C7.6316 11.8186 7.33 11.5264 7.33 11.1586L7.33 9.4886L5.67 9.4886C5.3016 9.4886 5 9.187 5 8.8186C5 8.4502 5.3016 8.1586 5.67 8.1586L7.33 8.1586L7.33 6.4886C7.33 6.1202 7.6316 5.8186 8 5.8186Z"></path><defs><filter id="filter_59_31" x="1.6999999999999886" y="4.718603515624977" width="12.600000000000023" height="8.600000000000023" filterUnits="userSpaceOnUse" color-interpolation-filters="sRGB"><feFlood flood-opacity="0" result="feFloodId_59_31"/><feColorMatrix in="SourceAlpha" type="matrix" values="0 0 0 0 0 0 0 0 0 0 0 0 0 0 0 0 0 0 127 0" result="hardAlpha_59_31"/><feOffset dx="0" dy="0.2"/><feGaussianBlur stdDeviation="0.15"/><feComposite in2="hardAlpha_59_31" operator="out"/><feColorMatrix type="matrix" values="0 0 0 0 0 0 0 0 0 0 0 0 0 0 0 0 0 0 0.25 0"/><feBlend mode="normal" in2="feFloodId_59_31" result="dropShadow_1_59_31"/><feBlend mode="normal" in="SourceGraphic" in2="dropShadow_1_59_31" result="shape_59_31"/></filter><filter id="filter_CD5C94D6-7557-4DBA-94E2-6CE39859EC02" x="2.037322998046875" y="0" width="10.92999267578125" height="9.210006713867188" filterUnits="userSpaceOnUse" color-interpolation-filters="sRGB"><feFlood flood-opacity="0" result="feFloodId_CD5C94D6-7557-4DBA-94E2-6CE39859EC02"/><feColorMatrix in="SourceAlpha" type="matrix" values="0 0 0 0 0 0 0 0 0 0 0 0 0 0 0 0 0 0 127 0" result="hardAlpha_CD5C94D6-7557-4DBA-94E2-6CE39859EC02"/><feOffset dx="0" dy="2"/><feGaussianBlur stdDeviation="2"/><feComposite in2="hardAlpha_CD5C94D6-7557-4DBA-94E2-6CE39859EC02" operator="out"/><feColorMatrix type="matrix" values="0 0 0 0 0 0 0 0 0 0 0 0 0 0 0 0 0 0 0.25 0"/><feBlend mode="normal" in2="feFloodId_CD5C94D6-7557-4DBA-94E2-6CE39859EC02" result="dropShadow_1_CD5C94D6-7557-4DBA-94E2-6CE39859EC02"/><feBlend mode="normal" in="SourceGraphic" in2="dropShadow_1_CD5C94D6-7557-4DBA-94E2-6CE39859EC02" result="shape_CD5C94D6-7557-4DBA-94E2-6CE39859EC02"/></filter><linearGradient id="linear_fill_4E939758-8081-48C6-8168-268DFBE50CD8_0" x1="-12.384002685546875" y1="12.62158203125" x2="15.083831787109375" y2="2.63385009765625" gradientUnits="userSpaceOnUse"><stop offset="0" stop-color="#FFFFFF"  /><stop offset="0.9582307370915358" stop-color="#7C2AEE"  /><stop offset="1" stop-color="#7620ED"  /></linearGradient><linearGradient id="linear_fill_59_32_0" x1="23.64459228515625" y1="-6.651702880859375" x2="8.357574462890625" y2="13.818603515625" gradientUnits="userSpaceOnUse"><stop offset="0" stop-color="#7620ED"  /><stop offset="1" stop-color="#7620ED" stop-opacity="0" /></linearGradient><filter id="filter_59_32" x="0.6999999999999886" y="3.7186035156249773" width="14.600000000000023" height="10.600000000000023" filterUnits="userSpaceOnUse" color-interpolation-filters="sRGB"><feFlood flood-opacity="0" result="feFloodId_59_32"/><feColorMatrix in="SourceAlpha" type="matrix" values="0 0 0 0 0 0 0 0 0 0 0 0 0 0 0 0 0 0 127 0" result="hardAlpha_59_32"/><feOffset dx="0" dy="0.2"/><feGaussianBlur stdDeviation="0.15"/><feComposite in2="hardAlpha_59_32" operator="out"/><feColorMatrix type="matrix" values="0 0 0 0 0 0 0 0 0 0 0 0 0 0 0 0 0 0 0.25 0"/><feBlend mode="normal" in2="feFloodId_59_32" result="dropShadow_1_59_32"/><feBlend mode="normal" in="SourceGraphic" in2="dropShadow_1_59_32" result="shape_59_32"/></filter></defs></svg>