<svg xmlns="http://www.w3.org/2000/svg" xmlns:xlink="http://www.w3.org/1999/xlink" width="16.446813964843727" height="15.324999999999989" viewBox="0 0 16.446813964843727 15.324999999999989" fill="none"><path d="M12.8 5.2L3.2 5.2C1.43269 5.2 0 6.49068 0 8.08281L0 10.9656C0 12.5577 1.43269 13.8484 3.2 13.8484L4.81671 13.8484L4.65206 15.325L6.46219 13.8484L12.8 13.8484C14.5674 13.8484 16 12.5577 16 10.9656L16 8.08281C16 6.49068 14.5674 5.2 12.8 5.2Z" fill-rule="evenodd"  fill="#7620ED" ></path><g opacity="0.4"><g filter="url(#filter_44_89)"><foreignObject x="-4.399999999999977" y="-5" width="25.846813964843705" height="22.70835571289058"><div xmlns="http://www.w3.org/1999/xhtml" style="backdrop-filter:blur(2px);clip-path:url(#bgblur_15.846813964843705_12.70835571289058_4_clip_path);height:100%;width:100%"></div></foreignObject><path d="M13.0468 0.2L4.00001 0.2C2.34315 0.2 1 1.54315 1 3.2L1 9.10836C1 10.7652 2.34315 12.1084 4.00001 12.1084L13.0468 12.1084C14.7037 12.1084 16.0468 10.7652 16.0468 9.10836L16.0468 3.2C16.0468 1.54315 14.7037 0.2 13.0468 0.2ZM7.9647 1.325C8.34588 1.325 8.65489 1.63401 8.65489 2.01519L8.65489 9.63482C8.65489 10.016 8.34588 10.325 7.9647 10.325C7.58352 10.325 7.27451 10.016 7.27451 9.63482L7.27451 2.01519C7.27451 1.63401 7.58352 1.325 7.9647 1.325ZM10.9514 3.62406C10.9514 3.23152 10.6332 2.9133 10.2407 2.9133C9.84813 2.9133 9.52992 3.23152 9.52992 3.62406L9.52992 8.55548C9.52992 8.94802 9.84813 9.26624 10.2407 9.26624C10.6332 9.26624 10.9514 8.94802 10.9514 8.55548L10.9514 3.62406ZM5.97623 3.9721C6.36876 3.9721 6.68696 4.2903 6.68696 4.68282L6.68696 6.96725C6.68696 7.35977 6.36876 7.67797 5.97623 7.67797C5.58371 7.67797 5.26551 7.35977 5.26551 6.96725L5.26551 4.68282C5.26551 4.2903 5.58371 3.9721 5.97623 3.9721ZM3.82349 5.0309C4.20467 5.0309 4.51368 5.33991 4.51368 5.72109L4.51368 5.92894C4.51368 6.31012 4.20467 6.61913 3.82349 6.61913C3.44231 6.61913 3.1333 6.31012 3.1333 5.92894L3.1333 5.72109C3.1333 5.33991 3.44231 5.0309 3.82349 5.0309ZM12.1573 5.0309C12.4308 5.0309 12.6525 5.25261 12.6525 5.52611L12.6525 6.96746C12.6525 7.24095 12.4308 7.46266 12.1573 7.46266C11.8838 7.46266 11.6621 7.24095 11.6621 6.96746L11.6621 5.52611C11.6621 5.25261 11.8838 5.0309 12.1573 5.0309ZM14.3372 5.5603L13.3254 5.5603C13.033 5.5603 12.796 5.79732 12.796 6.0897C12.796 6.38209 13.033 6.61911 13.3254 6.61911L14.3372 6.61911C14.6296 6.61911 14.8666 6.38209 14.8666 6.0897C14.8666 5.79732 14.6296 5.5603 14.3372 5.5603Z" fill-rule="evenodd"  fill="url(#linear_fill_44_89)" fill-opacity="0.7"></path></g></g><defs><clipPath id="bgblur_15.846813964843705_12.70835571289058_4_clip_path" transform="translate(4.399999999999977 5)"><path d="M13.0468 0.2L4.00001 0.2C2.34315 0.2 1 1.54315 1 3.2L1 9.10836C1 10.7652 2.34315 12.1084 4.00001 12.1084L13.0468 12.1084C14.7037 12.1084 16.0468 10.7652 16.0468 9.10836L16.0468 3.2C16.0468 1.54315 14.7037 0.2 13.0468 0.2ZM7.9647 1.325C8.34588 1.325 8.65489 1.63401 8.65489 2.01519L8.65489 9.63482C8.65489 10.016 8.34588 10.325 7.9647 10.325C7.58352 10.325 7.27451 10.016 7.27451 9.63482L7.27451 2.01519C7.27451 1.63401 7.58352 1.325 7.9647 1.325ZM10.9514 3.62406C10.9514 3.23152 10.6332 2.9133 10.2407 2.9133C9.84813 2.9133 9.52992 3.23152 9.52992 3.62406L9.52992 8.55548C9.52992 8.94802 9.84813 9.26624 10.2407 9.26624C10.6332 9.26624 10.9514 8.94802 10.9514 8.55548L10.9514 3.62406ZM5.97623 3.9721C6.36876 3.9721 6.68696 4.2903 6.68696 4.68282L6.68696 6.96725C6.68696 7.35977 6.36876 7.67797 5.97623 7.67797C5.58371 7.67797 5.26551 7.35977 5.26551 6.96725L5.26551 4.68282C5.26551 4.2903 5.58371 3.9721 5.97623 3.9721ZM3.82349 5.0309C4.20467 5.0309 4.51368 5.33991 4.51368 5.72109L4.51368 5.92894C4.51368 6.31012 4.20467 6.61913 3.82349 6.61913C3.44231 6.61913 3.1333 6.31012 3.1333 5.92894L3.1333 5.72109C3.1333 5.33991 3.44231 5.0309 3.82349 5.0309ZM12.1573 5.0309C12.4308 5.0309 12.6525 5.25261 12.6525 5.52611L12.6525 6.96746C12.6525 7.24095 12.4308 7.46266 12.1573 7.46266C11.8838 7.46266 11.6621 7.24095 11.6621 6.96746L11.6621 5.52611C11.6621 5.25261 11.8838 5.0309 12.1573 5.0309ZM14.3372 5.5603L13.3254 5.5603C13.033 5.5603 12.796 5.79732 12.796 6.0897C12.796 6.38209 13.033 6.61911 13.3254 6.61911L14.3372 6.61911C14.6296 6.61911 14.8666 6.38209 14.8666 6.0897C14.8666 5.79732 14.6296 5.5603 14.3372 5.5603Z"/></clipPath></defs><defs><linearGradient id="linear_fill_44_89" x1="1" y1="6.154193115234364" x2="16.04681396484375" y2="6.154193115234364" gradientUnits="userSpaceOnUse"><stop offset="0" stop-color="#CCCCCC"  /><stop offset="1" stop-color="#5F00E3"  /></linearGradient><filter id="filter_44_89" x="0.6000000000000227" y="0" width="15.846813964843705" height="12.70835571289058" filterUnits="userSpaceOnUse" color-interpolation-filters="sRGB"><feFlood flood-opacity="0" result="feFloodId_44_89"/><feColorMatrix in="SourceAlpha" type="matrix" values="0 0 0 0 0 0 0 0 0 0 0 0 0 0 0 0 0 0 127 0" result="hardAlpha_44_89"/><feOffset dx="0" dy="0.2"/><feGaussianBlur stdDeviation="0.2"/><feComposite in2="hardAlpha_44_89" operator="out"/><feColorMatrix type="matrix" values="0 0 0 0 0 0 0 0 0 0 0 0 0 0 0 0 0 0 0.25 0"/><feBlend mode="normal" in2="feFloodId_44_89" result="dropShadow_1_44_89"/><feBlend mode="normal" in="SourceGraphic" in2="dropShadow_1_44_89" result="shape_44_89"/></filter></defs></svg>